<svg xmlns="http://www.w3.org/2000/svg" xmlns:xlink="http://www.w3.org/1999/xlink" width="1024" zoomAndPan="magnify" viewBox="0 0 768 767.999994" height="1024" preserveAspectRatio="xMidYMid meet" version="1.0"><defs><clipPath id="6429bf3c6f"><path d="M 178.019531 514 L 233 514 L 233 569.253906 L 178.019531 569.253906 Z M 178.019531 514 " clip-rule="nonzero"/></clipPath><clipPath id="d1d6d63dcc"><path d="M 536 199.503906 L 589.019531 199.503906 L 589.019531 253 L 536 253 Z M 536 199.503906 " clip-rule="nonzero"/></clipPath><clipPath id="e41dbb94c9"><path d="M 35.359375 35.359375 L 732.859375 35.359375 L 732.859375 732.859375 L 35.359375 732.859375 Z M 35.359375 35.359375 " clip-rule="nonzero"/></clipPath></defs><path fill="#fdc55b" d="M 481.585938 346.078125 C 464.507812 359.960938 462.6875 359.292969 459.191406 337.53125 C 462.699219 359.285156 461.167969 360.492188 440.609375 352.648438 C 461.167969 360.492188 461.492188 362.410156 444.402344 376.328125 C 461.492188 362.421875 463.308594 363.105469 466.792969 384.882812 C 463.308594 363.121094 464.800781 361.894531 485.394531 369.746094 C 464.804688 361.894531 464.507812 359.960938 481.585938 346.078125 Z M 481.585938 346.078125 " fill-opacity="1" fill-rule="nonzero"/><path fill="#fdc55b" d="M 389.917969 372.152344 C 372.832031 386.03125 371.019531 385.363281 367.523438 363.597656 C 371.011719 385.359375 369.5 386.558594 348.929688 378.730469 C 369.5 386.5625 369.824219 388.492188 352.730469 402.40625 C 369.8125 388.496094 371.632812 389.195312 375.125 410.957031 C 371.632812 389.195312 373.144531 387.972656 393.722656 395.816406 C 373.148438 387.96875 372.84375 386.027344 389.917969 372.152344 Z M 389.917969 372.152344 " fill-opacity="1" fill-rule="nonzero"/><path fill="#fdc55b" d="M 276.480469 446.449219 C 250.960938 456.90625 249.035156 455.394531 252.75 428.082031 C 249.042969 455.394531 246.792969 456.335938 225 439.460938 C 246.792969 456.335938 246.460938 458.738281 220.929688 469.183594 C 246.457031 458.738281 248.375 460.242188 244.667969 487.5625 C 248.375 460.242188 250.640625 459.292969 272.433594 476.183594 C 250.640625 459.292969 250.964844 456.914062 276.480469 446.449219 Z M 276.480469 446.449219 " fill-opacity="1" fill-rule="nonzero"/><path fill="#fdc55b" d="M 570.105469 271.921875 C 548.234375 284.675781 542.480469 283.132812 529.722656 261.300781 C 542.488281 283.148438 540.953125 288.941406 519.105469 301.675781 C 540.96875 288.941406 546.726562 290.449219 559.472656 312.304688 C 546.71875 290.453125 548.230469 284.679688 570.105469 271.921875 Z M 570.105469 271.921875 " fill-opacity="1" fill-rule="nonzero"/><g clip-path="url(#6429bf3c6f)"><path fill="#fdc55b" d="M 197.003906 514.761719 C 204.390625 538.1875 201.707031 543.34375 178.261719 550.707031 C 201.707031 543.335938 206.84375 546.023438 214.222656 569.445312 C 206.839844 546.023438 209.53125 540.875 232.96875 533.492188 C 209.527344 540.882812 204.390625 538.195312 197.003906 514.761719 Z M 197.003906 514.761719 " fill-opacity="1" fill-rule="nonzero"/></g><path fill="#fdc55b" d="M 314.460938 429.882812 C 321.832031 453.316406 319.15625 458.453125 295.710938 465.824219 C 319.15625 458.441406 324.292969 461.152344 331.667969 484.574219 C 324.292969 461.152344 326.964844 455.972656 350.410156 448.621094 C 326.953125 455.984375 321.832031 453.316406 314.460938 429.882812 Z M 314.460938 429.882812 " fill-opacity="1" fill-rule="nonzero"/><path fill="#fdc55b" d="M 398.867188 460.414062 C 390.527344 463.59375 388.59375 462.734375 385.398438 454.417969 C 388.59375 462.734375 387.738281 464.660156 379.382812 467.878906 C 387.738281 464.667969 389.652344 465.535156 392.855469 473.882812 C 389.652344 465.535156 390.527344 463.59375 398.867188 460.414062 Z M 398.867188 460.414062 " fill-opacity="1" fill-rule="nonzero"/><path fill="#fdc55b" d="M 341.378906 388.128906 C 333.027344 391.308594 331.109375 390.464844 327.910156 382.121094 C 331.109375 390.464844 330.253906 392.382812 321.890625 395.582031 C 330.257812 392.382812 332.160156 393.242188 335.375 401.601562 C 332.164062 393.246094 333.035156 391.3125 341.378906 388.128906 Z M 341.378906 388.128906 " fill-opacity="1" fill-rule="nonzero"/><path fill="#fdc55b" d="M 435.460938 371.855469 C 427.101562 375.054688 425.179688 374.214844 421.988281 365.84375 C 425.179688 374.214844 424.320312 376.125 415.976562 379.324219 C 424.320312 376.125 426.25 376.984375 429.449219 385.324219 C 426.242188 376.984375 427.101562 375.054688 435.460938 371.855469 Z M 435.460938 371.855469 " fill-opacity="1" fill-rule="nonzero"/><path fill="#fdc55b" d="M 533.363281 355.335938 C 536.546875 363.679688 535.6875 365.605469 527.339844 368.804688 C 535.6875 365.605469 537.617188 366.464844 540.816406 374.804688 C 537.617188 366.464844 538.476562 364.535156 546.820312 361.335938 C 538.46875 364.535156 536.550781 363.679688 533.363281 355.335938 Z M 533.363281 355.335938 " fill-opacity="1" fill-rule="nonzero"/><g clip-path="url(#d1d6d63dcc)"><path fill="#fdc55b" d="M 566.375 199.667969 C 563.640625 222.15625 559.425781 225.445312 536.945312 222.710938 C 559.433594 225.445312 562.710938 229.636719 559.996094 252.128906 C 562.710938 229.632812 566.941406 226.359375 589.402344 229.082031 C 566.941406 226.363281 563.640625 222.15625 566.375 199.667969 Z M 566.375 199.667969 " fill-opacity="1" fill-rule="nonzero"/></g><g clip-path="url(#e41dbb94c9)"><path fill="#004aad" d="M 384 732.636719 C 290.875 732.636719 203.328125 696.371094 137.472656 630.527344 C 71.628906 564.671875 35.359375 477.125 35.359375 384 C 35.359375 290.875 71.628906 203.328125 137.472656 137.472656 C 203.328125 71.628906 290.875 35.359375 384 35.359375 C 477.125 35.359375 564.671875 71.628906 630.527344 137.472656 C 696.371094 203.328125 732.636719 290.875 732.636719 384 C 732.636719 477.125 696.371094 564.671875 630.527344 630.527344 C 564.683594 696.382812 477.125 732.636719 384 732.636719 Z M 384 88.570312 C 221.09375 88.570312 88.570312 221.105469 88.570312 384 C 88.570312 546.90625 221.105469 679.425781 384 679.425781 C 546.902344 679.425781 679.425781 546.894531 679.425781 384 C 679.425781 221.09375 546.902344 88.570312 384 88.570312 Z M 384 88.570312 " fill-opacity="1" fill-rule="nonzero"/></g><path fill="#004aad" d="M 499.722656 518.617188 C 494.539062 518.617188 489.300781 517.101562 484.699219 513.953125 L 355.09375 425.074219 C 347.84375 420.101562 343.523438 411.878906 343.535156 403.089844 L 343.871094 185.601562 C 343.890625 170.921875 355.804688 159.042969 370.46875 159.042969 C 370.480469 159.042969 370.5 159.042969 370.511719 159.042969 C 385.199219 159.0625 397.089844 170.996094 397.070312 185.683594 L 396.753906 389.132812 L 514.785156 470.070312 C 526.902344 478.386719 529.992188 494.945312 521.675781 507.058594 C 516.523438 514.570312 508.1875 518.617188 499.722656 518.617188 Z M 499.722656 518.617188 " fill-opacity="1" fill-rule="nonzero"/><path fill="#fdc55b" d="M 374.472656 108.941406 L 390.339844 150.113281 C 390.761719 151.210938 391.785156 151.964844 392.960938 152.042969 L 438.617188 155.199219 C 441.359375 155.390625 442.453125 158.832031 440.324219 160.566406 L 403.210938 190.742188 C 402.25 191.523438 401.859375 192.8125 402.234375 193.996094 L 415.355469 235.65625 C 416.195312 238.320312 413.285156 240.597656 410.894531 239.15625 L 373.210938 216.386719 C 372.246094 215.800781 371.035156 215.800781 370.070312 216.386719 L 332.390625 239.15625 C 330 240.597656 327.089844 238.320312 327.925781 235.65625 L 341.046875 193.996094 C 341.421875 192.8125 341.035156 191.523438 340.070312 190.742188 L 302.960938 160.566406 C 300.828125 158.832031 301.921875 155.390625 304.667969 155.199219 L 350.324219 152.042969 C 351.496094 151.964844 352.519531 151.210938 352.941406 150.113281 L 368.8125 108.941406 C 369.808594 106.355469 373.472656 106.355469 374.472656 108.941406 " fill-opacity="1" fill-rule="nonzero"/></svg>